<?xml version="1.0" encoding="UTF-8" standalone="no"?>
<svg
                            class="navbar__logo"
                            xmlns="http://www.w3.org/2000/svg"
                            viewBox="0 0 1910 1500"
                            height="200"
                            width="200"
                            xml:space="preserve">
                            <g
                                clip-path="url(#a)"
                                transform="matrix(1.33333 0 0 -1.33333 0 1866.667)">
                                <path
                                    style="
                                        fill: currentColor;
                                        fill-opacity: 1;
                                        fill-rule: nonzero;
                                        stroke: none;
                                    "
                                    d="M0 0c-1.564-.344-4.346-1.899-5.029-3.317C-6.944-7.29-2.173-29.718.991-33.089c2.002-2.134 6.558-3.309 9.495-3.636 10.414-1.163 37.44-1.233 47.786-.022 3.224.377 6.816 1.833 8.051 5.127 1.009 2.69-5.163 25.268-7.441 27.739C56.183-.953 50.278-.038 46.349.298 37.708 1.039 7.376 1.621 0 0m-709.121-.056c-4.594-.664-8.494-1.713-10.541-6.167-1.877-4.085-6.947-23.507-5.297-26.922 2.173-2.963 4.885-3.323 8.306-3.633 11.117-1.007 37.02-1.267 47.841.029 3.497.42 8.141 2.442 9.978 5.537 1.693 2.856 6.402 24.164 5.639 26.727-1.218 4.092-5.997 4.48-9.631 4.786-11.057.929-35.649 1.18-46.295-.358M36.971 80.992c-1.314 1.455-4.143 2.569-6.138 2.812-10.842 1.32-36.629.959-47.855-.004-3.93-.338-7.509-.407-7.502-5.351.003-2.488 3.738-19.21 4.816-21.288 1.141-2.2 3.787-3.965 6.046-4.694 6.508-2.103 39.667-1.654 48.076-.967 3.128.256 8.238.445 8.947 4.227.686 3.655-3.997 22.612-6.39 25.265m-728.495 2.759c-6.301 0-12.714-24.577-10.767-28.623 1.342-2.788 5.529-3.388 8.322-3.64 10.818-.977 32.284-.993 43.084.011 5.676.528 9.472 1.598 11.896 7.2 1.563 3.612 7.036 25.051 1.192 25.051zm656.939 76.045c-5.491-1.015-5.88-2.064-5.742-7.467.127-4.953 2.819-17.736 7.325-20.182 5.286-2.87 37.042-2.495 44.737-1.929 7.994.589 12.039-.176 11.171 8.864-1.102 11.482-3.563 19.971-15.95 21.057-8.805.773-33.452 1.151-41.541-.343m-635.167.012c-4.2-.756-6.954-2.967-8.642-6.872-1.225-2.83-4.697-16.973-3.637-19.089 1.157-2.309 5.919-3.294 8.415-3.577 9.217-1.042 28.823-.846 38.247-.043 3.629.31 10.29 1.207 12.369 4.342 1.15 1.735 5.096 18.154 4.902 20.14-.409 4.177-5.488 5.127-8.899 5.438-8.974.818-34.456 1.154-42.756-.34m617.162 66.887-2.342-2.532c-.43-4.99 1.921-20.557 7.172-22.072 9.993 1.498 43.424-3.095 50.489.339 4.973 2.418-.112 22.439-5.912 23.919zm-602.871-.055c-4.999-1.504-9.776-19.001-8.359-22.078l2.341-2.532c9.855 1.363 45.741-3.008 52.21 1.124 3.306 2.111 7.915 20.791 3.112 23.143-6.911 3.384-39.597-1.129-49.304.344m643.689 39.779c.377 6.631-1.265 19.489-8.381 21.701-5.451 1.693-33.207 1.54-39.799.792-2.672-.304-8.062-1.413-8.776-4.392.859-5.064 2.003-17.516 7.829-19.216zm-631.12 19.828c-.915-.914-5.043-15.533-4.965-17.088.117-2.348 1.923-3.647 4.124-4.07 4.986-.959 40.237-.842 45.076.224 5.759 1.269 7.751 10.689 8.038 15.886.355 6.418-1.612 7.084-7.784 7.709-8.762.888-27.05.888-35.818.011-1.883-.188-7.552-1.557-8.67-2.673M-77.86 343.78c-4.924 0-1.376-17.719 2.614-20.052 3.653-2.136 35.506-2.028 41.616-1.475 2.862.259 7.327.488 7.736 4.227.341 3.126-3.585 17.3-7.792 17.3zm-551.582-21.47h41.786c7.745 0 11.352 18.454 8.173 20.379-2.771 1.677-36.173 1.643-41.659 1.149-3.74-.337-6.81-.713-8.603-4.526-1.606-3.416-4.656-15.601.303-17.001m588.933 53.965c2.507 2.34-1.363 15.358-5.42 17.3-4.53 2.167-38.433 2.449-42.792.42-5.892-2.743-1.336-17.507 5.147-18.945 6.188-1.373 29.615-.903 36.805-.305 2.185.182 4.397.184 6.26 1.53m-527.707 17.36c-7.33 1.671-44.266 3.511-47.599-1.736-1.961-3.089-5.136-14.213-.801-16.224 1.274-.591 2.492-.743 3.866-.903 6.425-.75 32.314-.973 37.97.279 6.644 1.469 8.481 13.035 6.564 18.584m468.865 46.761c-3.431 0-.888-12.888.48-15.026 5.969-4.147 41.858-4.169 45.492-1.09 3.283 2.781-1.433 16.115-5.379 16.115zm-459.652 0h-41.786c-2.896 0-8.36-14.737-4.499-16.715 9.28-.874 37.939-3.622 44.875 1.126 2.057 2.478 4.967 14.486 1.41 15.589m33.713 4.488c-5.93-1.467-10.877-4.452-14.519-9.351l-76.947-381.147c-2.569-15.447 8.853-24.324 23.088-25.547l527.797-.009c13.003.116 26.413 8.653 25.345 22.944l-77.465 383.119c-2.846 6.699-11.457 9.701-18.32 10.324zm414.738 37.117c.227-11.39.658-14.429 12.353-15.404 5.263-.44 34.058-1.133 35.12 3.115-1.916 4.86-.651 12.036-6.69 13.361-6.192 1.36-27.25.838-34.411.319-2.219-.161-4.358-.429-6.373-1.391m-440.094 1.336c-9.613 1.555-27.526 0-38.204 0-4.189 0-6.145-10.12-6.47-13.565.823-2.76 7.535-3.016 10-3.185 6.334-.432 30.376-.84 34.491 2.338l3.264 12.421c-.139.692-2.561 1.907-3.081 1.991M-757.785-64.155l159.518 579.771 13.603-.066.058-7.105c1.452-1.51 32.03-1.724 36.242-1.143 5.122.709 8.465 2.516 7.92 8.186l15.473.054c1.782-1.797-6.671-28.581-5.784-33.709 1.207-6.98 13.463-8.878 19.458-9.282l366.558.072c4.668.435 15.542 2.798 17.091 7.985 1.82 6.098-7.019 33.713-5.724 34.929l13.571-.148c2.138-.747 1.848-4.231 3.663-5.883 3.876-3.527 39.479-3.532 41.962.035l-.696 5.994 15.586-.519L100.627-64.155H-17.568c-1.997 22.884-17.556 35.461-39.942 37.031l-545.647-.073c-19.903-2.043-36.879-15.791-36.433-36.958z"
                                    transform="translate(1048.53 602.056)" />
                                <path
                                    style="
                                        fill: currentColor;
                                        fill-opacity: 1;
                                        fill-rule: nonzero;
                                        stroke: none;
                                    "
                                    d="M0 0c-3.085 4.056-24.205 31.136-26.938 30.668L-53.562-.066l-58.928-5.538c-2.186-1.227.2-2.633 1.202-3.61 4.943-4.821 34.921-25.327 35.589-28.778l-20.05-55.296 69.86 27.476 68.621-27.475-20.046 55.298L61.831-6.235zm143.025 12.853-66.67-63.582 73.834-146.326-177.203 81.086-176.18-82.291 73.823 147.53-66.671 63.582 117.356 9.797 51.745 50.961L25.67 22.649z"
                                    transform="translate(743.367 903.259)" />
                            </g>
                        </svg>